{"title":"Hansel.And.Gretel.Witch.Hunters.2012.DVDRip.X264.AC3-VoXHD","uid":8441288,"size":1484281828,"categoryP":"video","categoryS":"movies","magnet":"?xt=urn:btih:4c338bb8dffbff261f11032c3e8f5cf68fb18994&amp;dn=Hansel.And.Gretel.Witch.Hunters.2012.DVDRip.X264.AC3-VoXHD&amp;tr=udp%3A%2F%2Ftracker.openbittorrent.com%3A80&amp;tr=udp%3A%2F%2Fopen.demonii.com%3A1337&amp;tr=udp%3A%2F%2Ftracker.coppersurfer.tk%3A6969&amp;tr=udp%3A%2F%2Fexodus.desync.com%3A6969","seeders":0,"leechers":0,"uploader":"Gh0stNet","files":3,"time":1367776342,"description":"Source: DVD R4\nSubs : English\n\nVideo\nID                                       : 1\nFormat                                   : AVC\nFormat/Info                              : Advanced Video Codec\nFormat profile                           : &lt;a class=&quot;__cf_email__&quot; href=&quot;/cdn-cgi/l/email-protection&quot; data-cfemail=&quot;0e466769664e423a203f&quot;&gt;[email&amp;#160;protected]&lt;/a&gt;&lt;script data-cfhash='f9e31' type=&quot;text/javascript&quot;&gt;\n/* &lt;![CDATA[ */!function(){try{var t=&quot;currentScript&quot;in document?document.currentScript:function(){for(var t=document.getElementsByTagName(&quot;script&quot;),e=t.length;e--;)if(t[e].getAttribute(&quot;data-cfhash&quot;))return t[e]}();if(t&amp;&amp;t.previousSibling){var e,r,n,i,c=t.previousSibling,a=c.getAttribute(&quot;data-cfemail&quot;);if(a){for(e=&quot;&quot;,r=parseInt(a.substr(0,2),16),n=2;a.length-n;n+=2)i=parseInt(a.substr(n,2),16)^r,e+=String.fromCharCode(i);e=document.createTextNode(e),c.parentNode.replaceChild(e,c)}t.parentNode.removeChild(t);}}catch(u){}}()/* ]]&gt; */&lt;/script&gt;\nFormat settings, CABAC                   : Yes\nFormat settings, ReFrames                : 4 frames\nCodec ID                                 : V_MPEG4/ISO/AVC\nDuration                                 : 1h 27mn\nBit rate                                 : 1 864 Kbps\nWidth                                    : 720 pixels\nHeight                                   : 304 pixels\nDisplay aspect ratio                     : 2.35:1\nFrame rate mode                          : Constant\nFrame rate                               : 23.976 fps\nColor space                              : YUV\nChroma subsampling                       : 4:2:0\nBit depth                                : 8 bits\nScan type                                : Progressive\nBits/(Pixel*Frame)                       : 0.355\nStream size                              : 1.12 GiB (81%)\nWriting library                          : x264 core 130 r2273 b3065e6\n\n\nAudio\nID                                       : 2\nFormat                                   : AC-3\nFormat/Info                              : Audio Coding 3\nMode extension                           : CM (complete main)\nFormat settings, Endianness              : Big\nCodec ID                                 : A_AC3\nDuration                                 : 1h 27mn\nBit rate mode                            : Constant\nBit rate                                 : 384 Kbps\nChannel(s)                               : 6 channels\nChannel positions                        : Front: L C R, Side: L R, LFE\nSampling rate                            : 48.0 KHz\nBit depth                                : 16 bits\nCompression mode                         : Lossy\nStream size                              : 242 MiB (17%)\nDefault                                  : Yes\nForced                                   : No\n\nScreens:\n &lt;a href=&quot;\nhttp://i.imgur.com/NbZazmc.png&quot; rel=&quot;nofollow&quot; target=&quot;_NEW&quot;&gt;\nhttp://i.imgur.com/NbZazmc.png&lt;/a&gt; &lt;a href=&quot;\nhttp://i.imgur.com/roVFYJF.png&quot; rel=&quot;nofollow&quot; target=&quot;_NEW&quot;&gt;\nhttp://i.imgur.com/roVFYJF.png&lt;/a&gt; &lt;a href=&quot;\nhttp://i.imgur.com/hAAYVdb.png&quot; rel=&quot;nofollow&quot; target=&quot;_NEW&quot;&gt;\nhttp://i.imgur.com/hAAYVdb.png&lt;/a&gt; &lt;a href=&quot;\nhttp://i.imgur.com/0cahj5n.png&quot; rel=&quot;nofollow&quot; target=&quot;_NEW&quot;&gt;\nhttp://i.imgur.com/0cahj5n.png&lt;/a&gt; &lt;a href=&quot;\nhttp://i.imgur.com/8mAQFrb.png&quot; rel=&quot;nofollow&quot; target=&quot;_NEW&quot;&gt;\nhttp://i.imgur.com/8mAQFrb.png&lt;/a&gt;","torrent":{"xt":"urn:btih:4c338bb8dffbff261f11032c3e8f5cf68fb18994","amp;dn":"Hansel.And.Gretel.Witch.Hunters.2012.DVDRip.X264.AC3-VoXHD","amp;tr":["udp%3A%2F%2Ftracker.openbittorrent.com%3A80","udp%3A%2F%2Fopen.demonii.com%3A1337","udp%3A%2F%2Ftracker.coppersurfer.tk%3A6969","udp%3A%2F%2Fexodus.desync.com%3A6969"],"infoHash":"4c338bb8dffbff261f11032c3e8f5cf68fb18994","infoHashBuffer":{"type":"Buffer","data":[76,51,139,184,223,251,255,38,31,17,3,44,62,143,92,246,143,177,137,148]},"announce":[],"urlList":[]}}